<?xml version="1.0" encoding="UTF-8"?>
<!-- Generated by Pixelmator Pro 3.6.14 -->
<svg width="3276" height="10103" viewBox="0 0 3276 10103" xmlns="http://www.w3.org/2000/svg">
    <g id="Capa-1">
        <g id="g1">
            <path id="path1" fill="#ffd559" stroke="none" d="M 783.297119 4576.240723 C 850.72168 4413.237793 917.112793 4241.970703 977.04126 4056.751465 C 1003.393799 3975.895508 1028.447021 3892.45459 1051.957031 3805.658691 C 1233.566162 3135.183105 1236.338623 1795.037109 1229.960693 1277.299805 C 1228.528076 1277.135742 1227.087646 1277.035156 1225.660156 1276.856445 C 1169.125488 1209.824219 1142.884277 1088.87793 1172.941895 1007.292969 C 1193.93457 950.755859 1228.046387 905.667969 1233.772217 841.736328 C 1237.828125 794.264648 1237.109619 746.314453 1241.168457 698.604492 C 1244.747559 657.8125 1252.380859 617.018555 1244.984619 575.988281 C 1237.351563 534.240234 1216.59668 497.980469 1205.623779 457.424805 C 1189.161621 396.834961 1196.320801 328.606445 1221.606445 272.786133 C 1249.517578 211.71582 1299.851563 190.004883 1338.019531 141.103516 C 1370.461182 99.59668 1390.023193 42.339844 1430.337891 12.044922 C 1401.952637 16.101563 1380.006592 21.348633 1368.080322 27.791016 C 1314.164063 55.939453 1288.63916 111.045898 1245.46167 150.883789 C 1195.364502 197.166016 1129.524902 217.678711 1093.026611 275.649414 C 1059.865723 328.369141 1050.562988 393.015625 1072.271729 450.508789 C 1086.587158 488.675781 1113.782227 523.267578 1123.559326 562.625977 C 1133.341064 601.512695 1123.322021 640.158203 1118.789063 678.802734 C 1113.30249 723.889648 1114.258789 769.213867 1108.769531 814.303711 C 1101.376221 874.657227 1056.526367 917.594727 1029.33374 971.03125 C 981.600098 1064.641602 1042.264893 1212.841797 1150.262207 1258.892578 C 1158.369141 1567.070313 1183.54126 3053.677734 941.653809 3805.658691 C 913.755371 3892.45459 884.045166 3975.895508 852.788818 4056.751465 C 776.842285 4253.595215 692.62793 4434.678711 607.380859 4606.981934 C 663.428467 4595.90332 722.289795 4585.822266 783.152832 4576.588867 C 783.202148 4576.472656 783.250977 4576.359863 783.297119 4576.240723 Z"/>
            <path id="path2" fill="#e9524f" stroke="none" d="M 2561.088867 9673.244141 L 2561.088867 9434.392578 C 2337.547363 9522.291016 2077.39917 9575.670898 1636.003174 9575.670898 C 1267.623779 9575.670898 1025.478271 9538.430664 825.405273 9474.995117 L 825.405273 9673.244141 C 825.405273 9877.061523 915.561523 10004.416992 1040.072021 10083.723633 C 1276.955078 10102.580078 1499.375732 10102.322266 1637.837891 10102.322266 C 1801.358643 10102.322266 2081.380859 10102.580078 2364.248047 10071.838867 L 2364.505371 10071.838867 C 2479.717773 9991.758789 2561.088867 9867.246094 2561.088867 9673.244141 Z"/>
            <path id="path3" fill="#e9524f" stroke="none" d="M 401.496582 9968.766602 C 313.925049 9894.886719 259.93457 9798.532227 259.93457 9673.244141 L 259.93457 9223.5625 C 226.21167 9208.84082 194.893799 9195.171875 170.01001 9183.276367 L 168.200928 9181.209961 C 165.10083 9175.009766 162.260742 9155.635742 159.934082 9125.667969 C 141.85376 8899.636719 141.596191 8073.254883 158.90332 7806.921875 C 160.19165 7785.99707 161.74292 7768.431641 163.291748 7754.998047 C 165.358887 7737.69043 167.685303 7727.099121 170.01001 7724.256836 C 195.664063 7718.61084 229.314697 7712.490234 259.93457 7705.591797 L 259.93457 7705.586914 L 259.93457 6866.030762 C 259.93457 6444.446289 353.44873 5889.822754 482.352539 5414.247559 C 488.2771 5392.09082 494.459717 5369.933105 500.641602 5348.036621 C 414.368896 5368.000977 335.195801 5390.131836 264.841064 5414.247559 C 111.656616 5889.822754 0.577515 6444.446289 0.577515 6866.030762 L 0.577515 9559.84082 C 0.577515 9762.367188 168.744629 9889.461914 401.496582 9968.766602 Z"/>
            <path id="path4" fill="#e9524f" stroke="none" d="M 2561.088867 7525.376953 L 2561.088867 7525.276367 L 2561.088867 6866.030762 C 2561.088867 6448.837891 2503.480469 5887.497559 2423.658203 5415.795898 C 2415.921387 5370.128906 2407.922852 5325.230469 2399.663086 5281.627441 C 2281.430664 5266.183105 2155.907715 5254.145996 2024.629883 5246.149902 C 1918.205322 5355.697754 1802.307129 5450.8125 1638.000488 5569.93457 C 1473.752441 5450.851074 1357.782471 5355.71875 1251.375732 5246.134766 C 1162.07251 5251.571777 1075.539063 5258.9375 992.008301 5267.89209 C 982.973389 5315.645996 974.193848 5364.431641 965.676514 5414.247559 C 884.302979 5889.822754 825.405273 6444.446289 825.405273 6866.030762 L 825.405273 7477.993652 C 1021.790771 7402.183594 1269.365967 7338.323242 1636.003174 7338.323242 C 2077.502686 7338.323242 2346.430176 7430.834961 2561.088867 7525.376953 Z"/>
            <path id="path5" fill="#e9524f" stroke="none" d="M 2797.717285 5415.795898 C 2924.551758 5887.497559 3015.999023 6448.837891 3015.999023 6866.030762 L 3015.999023 7706.331055 C 3043.728027 7712.260742 3069.737793 7716.185547 3102.250977 7724.256836 C 3105.351563 7726.065918 3108.45166 7736.660156 3110.776367 7754.485352 C 3112.842773 7767.914063 3114.651855 7785.481445 3116.200684 7806.664063 C 3136.865723 8072.479492 3132.734375 8901.960938 3112.842773 9125.927734 C 3110.260742 9156.668945 3107.418457 9176.300781 3104.060059 9181.724609 L 3102.250977 9183.276367 C 3074.375977 9196.115234 3045.307129 9208.837891 3015.999023 9221.642578 L 3015.999023 9673.244141 C 3015.999023 9798.790039 2961.748047 9895.144531 2873.924316 9969.026367 C 3106.928711 9889.461914 3275.358398 9762.62207 3275.358398 9559.84082 L 3275.358398 6866.030762 C 3275.358398 6448.837891 3166.601563 5887.497559 3015.999023 5415.795898 C 2945.431152 5391.438477 2865.883789 5369.075195 2779.118652 5348.902832 C 2785.57666 5370.855957 2791.776855 5393.327637 2797.717285 5415.795898 Z"/>
            <path id="path6" fill="#ee7b6e" stroke="none" d="M 825.405273 9673.244141 L 825.405273 9474.995117 C 771.60791 9457.94043 720.81543 9438.992188 671.483887 9418.352539 C 670.50708 9417.948242 669.532959 9417.541016 668.561768 9417.133789 C 653.120117 9410.644531 637.792236 9404.006836 622.57251 9397.195313 C 620.552002 9396.291016 618.531738 9395.366211 616.513672 9394.456055 C 602.296631 9388.044922 588.133301 9381.522461 574.01123 9374.84082 C 572.980469 9374.353516 571.942139 9373.878906 570.908691 9373.389648 C 556.500977 9366.547852 542.108398 9359.52832 527.703125 9352.415039 C 524.963379 9351.05957 522.213623 9349.714844 519.469238 9348.348633 C 488.243896 9332.832031 456.89209 9316.729492 424.97583 9300.038086 C 417.074463 9295.899414 408.753662 9291.768555 400.424561 9287.642578 C 397.63916 9286.261719 394.984619 9284.879883 392.1604 9283.500977 C 381.9375 9278.514648 371.47998 9273.548828 360.890869 9268.624023 C 360.287842 9268.34375 359.689941 9268.05957 359.086914 9267.779297 C 326.057617 9252.448242 291.919922 9237.527344 259.93457 9223.5625 L 259.93457 9673.244141 C 259.93457 9798.532227 313.925049 9894.886719 401.496582 9968.766602 C 590.07373 10033.348633 821.274414 10066.671875 1040.072021 10083.723633 C 915.561523 10004.416992 825.405273 9877.061523 825.405273 9673.244141 Z"/>
            <path id="path7" fill="#ee7b6e" stroke="none" d="M 612.359619 7570.25 C 629.530518 7562.287109 647.017822 7554.242188 664.788818 7546.155273 C 668.360352 7544.529297 671.865479 7542.931641 675.470459 7541.302734 C 697.756348 7531.221191 720.624512 7521.125 744.142578 7511.084961 C 745.30957 7510.584961 746.44873 7510.087891 747.621338 7509.590332 C 772.708252 7498.918945 798.57373 7488.350586 825.405273 7477.993652 L 825.405273 6866.030762 C 825.405273 6444.446289 884.302979 5889.822754 965.676514 5414.247559 C 974.193848 5364.431641 982.973389 5315.645996 992.008301 5267.89209 C 987.155762 5268.415039 982.249023 5268.907227 977.41748 5269.438477 C 966.568359 5270.633789 955.799316 5271.870605 945.057861 5273.121094 C 933.348145 5274.486328 921.679688 5275.870605 910.106445 5277.300293 C 899.406494 5278.620117 888.786621 5279.97998 878.205566 5281.359375 C 866.531494 5282.879883 854.909668 5284.425781 843.375 5286.013672 C 833.409668 5287.387207 823.51123 5288.788574 813.659668 5290.208496 C 801.591064 5291.953125 789.600342 5293.729492 777.705078 5295.542969 C 768.706055 5296.916504 759.751221 5298.308594 750.847656 5299.725586 C 738.30542 5301.717285 725.874268 5303.753418 713.5354 5305.830566 C 705.520752 5307.175781 697.540039 5308.536133 689.610352 5309.92041 C 676.663574 5312.177734 663.85083 5314.484375 651.143799 5316.831543 C 643.984619 5318.153809 636.841309 5319.478027 629.764404 5320.829102 C 616.681396 5323.323242 603.757813 5325.87207 590.945068 5328.464355 C 584.39917 5329.783691 577.856445 5331.105957 571.385254 5332.450684 C 558.405029 5335.149414 545.610352 5337.911621 532.923828 5340.70752 C 526.818848 5342.052734 520.693359 5343.392578 514.655518 5344.76123 C 509.91626 5345.833496 505.331543 5346.95166 500.641602 5348.036621 C 494.459717 5369.933105 488.2771 5392.09082 482.352539 5414.247559 C 353.44873 5889.822754 259.93457 6444.446289 259.93457 6866.030762 L 259.93457 7705.586914 C 263.034424 7704.810547 265.877197 7704.292969 268.974365 7703.519531 C 387.269287 7675.937988 493.678711 7625.227539 612.359619 7570.25 Z"/>
            <path id="path8" fill="#d74948" stroke="none" d="M 3015.999023 9673.244141 L 3015.999023 9221.642578 C 3007.203613 9225.485352 2998.424316 9229.334961 2989.584961 9233.213867 C 2978.918945 9237.923828 2968.286133 9242.689453 2957.629883 9247.464844 C 2946.613281 9252.380859 2935.632813 9257.341797 2924.687988 9262.37793 C 2900.861328 9273.352539 2877.351563 9284.666016 2854.382813 9296.416992 C 2851.970703 9297.65625 2849.424805 9298.788086 2847.027832 9300.038086 C 2825.592285 9311.248047 2804.422363 9322.181641 2783.365723 9332.871094 C 2778.263184 9335.466797 2773.12207 9338.042969 2768.032227 9340.607422 C 2749.862305 9349.738281 2731.740723 9358.654297 2713.624512 9367.367188 C 2709.367188 9369.410156 2705.089844 9371.5 2700.827148 9373.520508 C 2679.288086 9383.746094 2657.665039 9393.628906 2635.863281 9403.21875 C 2634.443359 9403.841797 2633.010742 9404.462891 2631.588379 9405.081055 C 2608.390137 9415.227539 2584.947266 9425.011719 2561.088867 9434.392578 L 2561.088867 9673.244141 C 2561.088867 9867.246094 2479.717773 9991.758789 2364.505371 10071.838867 C 2542.749023 10052.464844 2722.025391 10020.948242 2873.924316 9969.026367 C 2961.748047 9895.144531 3015.999023 9798.790039 3015.999023 9673.244141 Z"/>
            <path id="path9" fill="#d74948" stroke="none" d="M 2679.16748 5327.327637 C 2657.507813 5322.980469 2635.410156 5318.790039 2612.992188 5314.724121 C 2604.864258 5313.249512 2596.798828 5311.752441 2588.575684 5310.314453 C 2562.287109 5305.719727 2535.553711 5301.29541 2508.304688 5297.071289 C 2500.23584 5295.821777 2491.992188 5294.644043 2483.84375 5293.427246 C 2462.707031 5290.267578 2441.269531 5287.237305 2419.59668 5284.302734 C 2412.960938 5283.407715 2406.348145 5282.503418 2399.663086 5281.627441 C 2407.922852 5325.230469 2415.921387 5370.128906 2423.658203 5415.795898 C 2503.480469 5887.497559 2561.088867 6448.837891 2561.088867 6866.030762 L 2561.088867 7525.276367 C 2566.550293 7527.678711 2571.716797 7530.074219 2577.107422 7532.479004 C 2584.939453 7535.973633 2592.696289 7539.45752 2600.393555 7542.946289 C 2744.086914 7608.005859 2865.708984 7671.304688 3003.34375 7703.519531 C 3006.601074 7704.285156 3009.659668 7704.965332 3012.73877 7705.62793 C 3013.832031 7705.864746 3014.916992 7706.099121 3015.999023 7706.331055 L 3015.999023 6866.030762 C 3015.999023 6448.837891 2924.551758 5887.497559 2797.717285 5415.795898 C 2791.776855 5393.327637 2785.57666 5370.855957 2779.118652 5348.902832 C 2778.881836 5348.845703 2778.639648 5348.789063 2778.399902 5348.73291 C 2751.276855 5342.369629 2723.35498 5336.287598 2694.822754 5330.422852 C 2689.668945 5329.366211 2684.360352 5328.366211 2679.16748 5327.327637 Z"/>
            <path id="path10" fill="#fdf0ee" stroke="none" d="M 2505.291992 4606.724121 C 2540.423828 4691.971191 2576.074707 4775.151855 2610.946777 4857.040527 C 2670.102051 4994.727539 2727.192383 5163.931152 2779.116211 5348.889648 C 2778.884277 5348.835449 2778.634766 5348.786133 2778.399902 5348.73291 C 2778.639648 5348.789063 2778.881836 5348.845703 2779.118652 5348.902832 C 2865.883789 5369.075195 2945.431152 5391.438477 3015.999023 5415.795898 C 2948.316895 5204.745117 2872.630371 5011.258789 2794.099121 4857.040527 C 2785.084473 4839.290527 2775.982422 4821.208008 2766.926758 4803.328613 C 2752.599121 4775.033203 2738.288574 4746.693848 2723.906738 4718.024414 C 2705.449707 4681.23291 2686.973145 4644.25 2668.555664 4606.724121 C 2612.477051 4595.689453 2553.595215 4585.644043 2492.716309 4576.441895 C 2496.82666 4586.453613 2501.184082 4596.714844 2505.291992 4606.724121 Z"/>
            <path id="path11" fill="#fdf0ee" stroke="none" d="M 1094.06543 4806.92627 C 1058.673096 4938.669922 1024.058594 5095.990723 992.026611 5267.776367 C 987.104492 5268.304199 982.316162 5268.899902 977.41748 5269.438477 C 982.249023 5268.907227 987.155762 5268.415039 992.008301 5267.89209 C 1075.539063 5258.9375 1162.07251 5251.571777 1251.375732 5246.134766 C 1357.782471 5355.71875 1473.752441 5450.851074 1638.000488 5569.93457 C 1802.307129 5450.8125 1918.205322 5355.697754 2024.629883 5246.149902 C 2155.907715 5254.145996 2281.430664 5266.183105 2399.663086 5281.627441 C 2406.348145 5282.503418 2412.960938 5283.407715 2419.59668 5284.302734 C 2412.865723 5283.390137 2406.417969 5282.358887 2399.632813 5281.467285 C 2370.447754 5122.855957 2338.673828 4977.936035 2306.123047 4857.040527 C 2283.907227 4775.151855 2261.693359 4691.971191 2239.474609 4606.724121 C 2234.075684 4585.907227 2228.427246 4564.834961 2223.02832 4543.5 C 2148.883057 4536.416016 2072.70166 4530.483887 1994.327148 4526.115723 C 1895.96582 4429.032715 1786.865967 4340.85498 1638.000488 4232.930176 C 1489.166016 4340.834961 1380.035156 4429.037598 1281.696777 4526.128418 C 1242.598389 4528.309082 1204.17041 4530.965332 1166.07959 4533.838867 C 1159.64502 4558.560059 1153.460205 4582.773438 1147.022461 4606.981934 C 1129.452393 4674.921875 1111.629883 4741.310547 1094.06543 4806.92627 Z"/>
            <path id="path12" fill="#fdf0ee" stroke="none" d="M 514.655518 5344.76123 C 510.037354 5345.805176 505.264893 5346.799316 500.693359 5347.858887 C 558.041504 5144.814941 621.587891 4958.821777 686.170166 4806.92627 C 714.326172 4741.310547 742.485352 4674.921875 770.641846 4606.981934 C 774.72876 4596.76709 779.065918 4586.796387 783.152832 4576.588867 C 722.289795 4585.822266 663.428467 4595.90332 607.380859 4606.981934 C 574.05542 4674.921875 540.474121 4741.310547 507.148682 4806.92627 C 497.538574 4825.918945 487.95752 4845.604004 478.404785 4865.627441 C 473.157959 4876.624023 467.94458 4888.026855 462.721191 4899.319336 C 458.884033 4907.614258 455.044189 4915.881836 451.220215 4924.326172 C 444.22583 4939.775391 437.281006 4955.557129 430.341309 4971.498535 C 428.74585 4975.167969 427.150879 4978.848145 425.555908 4982.542969 C 391.549561 5061.366211 358.275635 5145.662598 326.282227 5234.318848 C 325.880127 5235.442383 325.465088 5236.532227 325.05542 5237.65625 C 315.904053 5263.075684 306.879639 5288.861328 297.952881 5314.912109 C 296.708252 5318.550781 295.419434 5322.086426 294.179932 5325.735352 C 284.248291 5354.906738 274.450928 5384.397949 264.841064 5414.247559 C 335.195801 5390.131836 414.368896 5368.000977 500.641602 5348.036621 C 505.331543 5346.95166 509.91626 5345.833496 514.655518 5344.76123 Z"/>
            <path id="path13" fill="#ffffff" stroke="none" d="M 571.385254 5332.450684 C 577.856445 5331.105957 584.39917 5329.783691 590.945068 5328.464355 C 603.762939 5325.874512 616.67627 5323.323242 629.764404 5320.829102 C 636.841309 5319.478027 643.984619 5318.153809 651.143799 5316.831543 C 663.855957 5314.486328 676.660889 5312.175293 689.610352 5309.92041 C 697.540039 5308.536133 705.520752 5307.175781 713.5354 5305.830566 C 725.874268 5303.753418 738.30542 5301.717285 750.847656 5299.725586 C 759.751221 5298.308594 768.706055 5296.916504 777.705078 5295.542969 C 789.608398 5293.729492 801.591064 5291.953125 813.659668 5290.208496 C 823.51123 5288.788574 833.409668 5287.387207 843.375 5286.013672 C 854.909668 5284.425781 866.52417 5282.876953 878.205566 5281.359375 C 888.786621 5279.97998 899.406494 5278.620117 910.106445 5277.300293 C 921.679688 5275.870605 933.348145 5274.486328 945.057861 5273.121094 C 955.799316 5271.870605 966.568359 5270.633789 977.41748 5269.438477 C 982.316162 5268.899902 987.104492 5268.304199 992.026611 5267.776367 C 1024.058594 5095.990723 1058.673096 4938.669922 1094.06543 4806.92627 C 1111.629883 4741.310547 1129.452393 4674.921875 1147.022461 4606.981934 C 1153.460205 4582.773438 1159.64502 4558.560059 1166.07959 4533.838867 C 1166.097412 4533.76416 1166.115723 4533.692383 1166.13623 4533.616699 C 1153.192139 4534.609375 1140.605957 4535.808105 1127.7854 4536.87207 C 1113.125 4538.088379 1098.430908 4539.28418 1083.935059 4540.593262 C 1068.882813 4541.951172 1054.008301 4543.404297 1039.141846 4544.863281 C 1023.370605 4546.412109 1007.681641 4548.001953 992.127197 4549.661621 C 975.48999 4551.439941 959.028076 4553.29541 942.645996 4555.202148 C 931.134521 4556.539551 919.736572 4557.933594 908.356689 4559.335938 C 888.291992 4561.812012 868.4104 4564.365723 848.763428 4567.040527 C 842.758789 4567.85791 836.852539 4568.71875 830.884277 4569.553223 C 815.01001 4571.777344 798.883057 4573.885254 783.297119 4576.240723 C 783.250977 4576.359863 783.202148 4576.472656 783.152832 4576.588867 C 779.065918 4586.796387 774.72876 4596.76709 770.641846 4606.981934 C 742.485352 4674.921875 714.326172 4741.310547 686.170166 4806.92627 C 621.587891 4958.821777 558.041504 5144.814941 500.693359 5347.858887 C 505.264893 5346.799316 510.037354 5345.805176 514.655518 5344.76123 C 520.693359 5343.392578 526.818848 5342.052734 532.923828 5340.70752 C 545.613037 5337.911621 558.405029 5335.149414 571.385254 5332.450684 Z"/>
            <path id="path14" fill="#e9e7e1" stroke="none" d="M 2306.123047 4857.040527 C 2338.673828 4977.936035 2370.447754 5122.855957 2399.632813 5281.467285 C 2406.417969 5282.358887 2412.865723 5283.390137 2419.59668 5284.302734 C 2441.269531 5287.237305 2462.707031 5290.267578 2483.84375 5293.427246 C 2491.992188 5294.644043 2500.23584 5295.821777 2508.304688 5297.071289 C 2535.553711 5301.29541 2562.287109 5305.719727 2588.575684 5310.314453 C 2596.798828 5311.754883 2604.864258 5313.24707 2612.992188 5314.724121 C 2635.410156 5318.790039 2657.507813 5322.980469 2679.16748 5327.327637 C 2684.35498 5328.369141 2689.673828 5329.36377 2694.822754 5330.422852 C 2723.35498 5336.287598 2751.276855 5342.369629 2778.399902 5348.73291 C 2778.634766 5348.786133 2778.884277 5348.835449 2779.116211 5348.889648 C 2727.192383 5163.931152 2670.102051 4994.727539 2610.946777 4857.040527 C 2576.074707 4775.151855 2540.423828 4691.971191 2505.291992 4606.724121 C 2501.184082 4596.714844 2496.82666 4586.453613 2492.716309 4576.441895 C 2492.69043 4576.375 2492.65918 4576.308105 2492.633789 4576.240723 C 2474.99707 4573.586914 2457.058105 4571.058594 2439.055176 4568.556641 C 2436.914063 4568.259766 2434.82666 4567.937988 2432.682617 4567.641602 C 2406.072266 4563.981934 2379.050293 4560.507813 2351.685059 4557.199219 C 2350.097656 4557.005859 2348.476563 4556.833008 2346.883789 4556.642578 C 2320.152344 4553.43457 2293.035156 4550.429688 2265.63623 4547.568848 C 2264.935547 4547.49707 2264.231934 4547.427734 2263.530762 4547.352539 C 2250.027344 4545.948242 2236.608887 4544.492188 2222.945801 4543.175293 C 2222.97168 4543.283691 2223 4543.391602 2223.02832 4543.5 C 2228.427246 4564.834961 2234.075684 4585.907227 2239.474609 4606.724121 C 2261.693359 4691.971191 2283.907227 4775.151855 2306.123047 4857.040527 Z"/>
            <path id="path15" fill="#ffd559" stroke="none" d="M 1937.744141 141.103516 C 1976.14917 190.004883 2026.485352 211.71582 2054.157471 272.786133 C 2079.684814 328.606445 2086.601807 396.834961 2070.142578 457.424805 C 2059.167236 497.980469 2038.412109 534.240234 2031.015869 575.988281 C 2023.383057 617.018555 2031.258301 657.8125 2034.595459 698.604492 C 2038.654297 746.314453 2038.17749 794.264648 2042.230957 841.736328 C 2047.717529 905.667969 2082.071289 950.755859 2102.821289 1007.292969 C 2132.879639 1088.87793 2106.877686 1209.824219 2050.580566 1276.856445 C 2049.054932 1277.044922 2047.500732 1277.15332 2045.9729 1277.331055 C 2039.592041 1795.091797 2042.372803 3135.195801 2223.976563 3805.658691 C 2251.099609 3906.664063 2280.807129 4003.278809 2311.805664 4096.274414 C 2368.378418 4266.253906 2430.118164 4424.865234 2492.633789 4576.240723 C 2492.65918 4576.308105 2492.69043 4576.375 2492.716309 4576.441895 C 2553.595215 4585.644043 2612.477051 4595.689453 2668.555664 4606.724121 C 2588.988281 4446.045898 2510.456055 4277.618164 2438.640137 4096.274414 C 2401.705078 4003.278809 2366.569336 3906.664063 2334.282715 3805.658691 C 2092.39502 3053.703613 2117.559326 1567.174805 2125.669189 1258.926758 C 2233.714844 1212.90918 2294.413574 1064.65918 2246.671875 971.03125 C 2219.239746 917.594727 2174.390137 874.657227 2167.233643 814.303711 C 2161.74707 769.213867 2162.700439 723.889648 2157.214355 678.802734 C 2152.681152 640.158203 2142.661621 601.512695 2152.44165 562.625977 C 2162.223633 523.267578 2189.418945 488.675781 2203.731934 450.508789 C 2225.44043 393.015625 2216.134766 328.369141 2182.742188 275.649414 C 2146.478516 217.678711 2080.63623 197.166016 2030.541748 150.883789 C 1987.364014 111.045898 1961.839111 55.939453 1907.925293 27.791016 C 1895.996826 21.348633 1874.050781 16.101563 1845.662598 12.044922 C 1885.977051 42.339844 1905.302002 99.59668 1937.744141 141.103516 Z"/>
            <path id="path16" fill="#ffd559" stroke="none" d="M 1379.76709 243.441406 C 1363.06543 302.604492 1358.297852 374.886719 1369.268311 439.296875 C 1376.427246 482.234375 1390.262939 520.87793 1395.272949 565.014648 C 1400.282471 608.668945 1395.032959 651.847656 1392.886719 695.02832 C 1390.023193 745.600586 1390.50293 796.411133 1387.87915 846.982422 C 1384.060303 914.495117 1361.397949 962.442383 1347.562012 1022.322266 C 1328.953613 1102.474609 1342.552734 1218.173828 1374.75708 1291.40918 C 1395.522949 1291.40918 1416.175049 1290.495117 1436.347656 1290.1875 C 1440.30835 1817.173828 1437.633545 3140.808105 1324.230225 3805.658691 C 1309.505127 3892.45459 1293.749268 3975.895508 1277.218018 4056.751465 C 1242.60376 4225.95459 1204.626221 4383.530273 1166.13623 4533.616699 C 1166.115723 4533.692383 1166.097412 4533.76416 1166.07959 4533.838867 C 1204.17041 4530.965332 1242.598389 4528.309082 1281.696777 4526.128418 C 1380.035156 4429.037598 1489.166016 4340.834961 1638.000488 4232.930176 C 1786.865967 4340.85498 1895.96582 4429.032715 1994.327148 4526.115723 C 2072.70166 4530.483887 2148.883057 4536.416016 2223.02832 4543.5 C 2223 4543.391602 2222.97168 4543.283691 2222.945801 4543.175293 C 2186.51709 4401.873535 2150.87207 4253.853027 2117.546143 4096.274414 C 2098.172363 4003.278809 2079.574219 3906.664063 2062.264648 3805.658691 C 1948.98999 3140.171875 1946.444092 1814.692383 1950.203613 1288.734375 C 1946.20166 1289.210938 1942.328369 1289.873047 1938.220947 1290.216797 C 1969.946289 1216.983398 1983.307861 1102 1964.699463 1022.322266 C 1950.863281 962.442383 1928.201172 914.495117 1924.38501 846.982422 C 1921.761719 796.411133 1921.998779 745.600586 1919.375 695.02832 C 1916.98877 651.847656 1911.979004 608.668945 1916.98877 565.014648 C 1921.998779 520.87793 1935.834717 482.234375 1942.993408 439.296875 C 1953.966309 374.886719 1949.196289 302.604492 1932.494629 243.441406 C 1913.891357 178.794922 1880.493408 155.654297 1855.202881 103.649414 C 1840.892578 74.788086 1830.396729 38.763672 1817.274658 8.467773 C 1727.81665 -1.077148 1595.894531 -2.267578 1496.422607 5.12793 C 1482.581787 36.378906 1471.848145 73.831055 1457.058594 103.649414 C 1431.773193 155.654297 1398.375488 178.794922 1379.76709 243.441406 Z"/>
            <path id="path17" fill="#ffe496" stroke="none" d="M 1338.019531 141.103516 C 1299.851563 190.004883 1249.517578 211.71582 1221.606445 272.786133 C 1196.320801 328.606445 1189.161621 396.834961 1205.623779 457.424805 C 1216.59668 497.980469 1237.351563 534.240234 1244.984619 575.988281 C 1252.380859 617.018555 1244.747559 657.8125 1241.168457 698.604492 C 1237.109619 746.314453 1237.828125 794.264648 1233.772217 841.736328 C 1228.046387 905.667969 1193.93457 950.755859 1172.941895 1007.292969 C 1142.884277 1088.87793 1169.125488 1209.824219 1225.660156 1276.856445 C 1227.087646 1277.035156 1228.528076 1277.135742 1229.960693 1277.299805 C 1236.338623 1795.037109 1233.566162 3135.183105 1051.957031 3805.658691 C 1028.447021 3892.45459 1003.393799 3975.895508 977.04126 4056.751465 C 917.112793 4241.970703 850.72168 4413.237793 783.297119 4576.240723 C 798.883057 4573.885254 815.01001 4571.777344 830.884277 4569.553223 C 836.844482 4568.712891 842.766846 4567.86084 848.763428 4567.040527 C 868.4104 4564.365723 888.291992 4561.812012 908.356689 4559.335938 C 919.72876 4557.92627 931.149902 4556.547363 942.645996 4555.202148 C 959.028076 4553.29541 975.48999 4551.439941 992.127197 4549.661621 C 1007.676514 4547.994141 1023.370605 4546.414551 1039.141846 4544.863281 C 1054.008301 4543.404297 1068.882813 4541.951172 1083.935059 4540.593262 C 1098.443848 4539.286621 1113.109375 4538.078125 1127.7854 4536.87207 C 1140.605957 4535.808105 1153.192139 4534.609375 1166.13623 4533.616699 C 1204.626221 4383.530273 1242.60376 4225.95459 1277.218018 4056.751465 C 1293.749268 3975.895508 1309.505127 3892.45459 1324.230225 3805.658691 C 1437.633545 3140.808105 1440.30835 1817.173828 1436.347656 1290.1875 C 1416.175049 1290.495117 1395.522949 1291.40918 1374.75708 1291.40918 C 1342.552734 1218.173828 1328.953613 1102.474609 1347.562012 1022.322266 C 1361.397949 962.442383 1384.060303 914.495117 1387.87915 846.982422 C 1390.50293 796.411133 1390.023193 745.600586 1392.886719 695.02832 C 1395.032959 651.847656 1400.282471 608.668945 1395.272949 565.014648 C 1390.262939 520.87793 1376.427246 482.234375 1369.268311 439.296875 C 1358.297852 374.886719 1363.06543 302.604492 1379.76709 243.441406 C 1398.375488 178.794922 1431.773193 155.654297 1457.058594 103.649414 C 1471.848145 73.831055 1482.581787 36.378906 1496.422607 5.12793 C 1472.088135 7.035156 1449.662842 9.18457 1430.337891 12.044922 C 1390.023193 42.339844 1370.461182 99.59668 1338.019531 141.103516 Z"/>
            <path id="path18" fill="#f3b649" stroke="none" d="M 1932.494629 243.441406 C 1949.196289 302.604492 1953.966309 374.886719 1942.993408 439.296875 C 1935.834717 482.234375 1921.998779 520.87793 1916.98877 565.014648 C 1911.979004 608.668945 1916.98877 651.847656 1919.375 695.02832 C 1921.998779 745.600586 1921.761719 796.411133 1924.38501 846.982422 C 1928.201172 914.495117 1950.863281 962.442383 1964.699463 1022.322266 C 1983.307861 1102 1969.946289 1216.983398 1938.220947 1290.216797 C 1942.328369 1289.873047 1946.20166 1289.210938 1950.203613 1288.734375 C 1946.444092 1814.692383 1948.98999 3140.171875 2062.264648 3805.658691 C 2079.574219 3906.664063 2098.172363 4003.278809 2117.546143 4096.274414 C 2150.87207 4253.853027 2186.51709 4401.873535 2222.945801 4543.175293 C 2236.608887 4544.492188 2250.027344 4545.948242 2263.530762 4547.352539 C 2264.234375 4547.425293 2264.929688 4547.49707 2265.63623 4547.568848 C 2293.035156 4550.429688 2320.152344 4553.43457 2346.883789 4556.642578 C 2348.476563 4556.833008 2350.095215 4557.008789 2351.685059 4557.199219 C 2379.050293 4560.507813 2406.072266 4563.981934 2432.682617 4567.641602 C 2434.82666 4567.937988 2436.911621 4568.259766 2439.055176 4568.556641 C 2457.058105 4571.058594 2474.99707 4573.586914 2492.633789 4576.240723 C 2430.118164 4424.865234 2368.378418 4266.253906 2311.805664 4096.274414 C 2280.807129 4003.278809 2251.099609 3906.664063 2223.976563 3805.658691 C 2042.372803 3135.195801 2039.592041 1795.091797 2045.9729 1277.331055 C 2047.500732 1277.15332 2049.054932 1277.044922 2050.580566 1276.856445 C 2106.877686 1209.824219 2132.879639 1088.87793 2102.821289 1007.292969 C 2082.071289 950.755859 2047.717529 905.667969 2042.230957 841.736328 C 2038.17749 794.264648 2038.654297 746.314453 2034.595459 698.604492 C 2031.258301 657.8125 2023.383057 617.018555 2031.015869 575.988281 C 2038.412109 534.240234 2059.167236 497.980469 2070.142578 457.424805 C 2086.601807 396.834961 2079.684814 328.606445 2054.157471 272.786133 C 2026.485352 211.71582 1976.14917 190.004883 1937.744141 141.103516 C 1905.302002 99.59668 1885.977051 42.339844 1845.662598 12.044922 C 1836.83667 10.854492 1827.293945 9.662109 1817.274658 8.467773 C 1830.396729 38.763672 1840.892578 74.788086 1855.202881 103.649414 C 1880.493408 155.654297 1913.891357 178.794922 1932.494629 243.441406 Z"/>
            <path id="path19" fill="#fdf0ee" stroke="none" d="M 3022.598633 9119.998047 L 3022.735352 9118.382813 C 3041.503906 8907.282227 3046.678223 8078.828125 3026.052246 7813.666016 C 3025.711914 7808.999023 3025.371582 7804.583984 3025.016113 7800.421875 C 3022.147949 7799.875977 3018.916016 7799.113281 3015.999023 7798.546875 L 3015.999023 9122.905273 C 3018.174316 9121.943359 3020.447266 9120.949219 3022.598633 9119.998047 Z"/>
            <path id="path20" fill="#fdf0ee" stroke="none" d="M 249.95874 7800.248047 C 249.68042 7804.069336 249.4021 7808.154297 249.139648 7812.493164 C 231.783203 8079.557617 232.363281 8897.293945 250.05957 9118.457031 L 250.237305 9120.552734 C 253.296387 9121.913086 256.7854 9123.422852 259.93457 9124.8125 L 259.93457 7798.072266 C 256.57666 7798.77832 253.319336 7799.55957 249.95874 7800.248047 Z"/>
            <path id="path21" fill="#fdf0ee" stroke="none" d="M 1636.005859 9485.259766 C 2085.218018 9485.259766 2338.106934 9429.28418 2561.088867 9336.783203 L 2561.088867 7624.408203 C 2344.592773 7526.374023 2085.424316 7428.739746 1636.005859 7428.739746 C 1262.7146 7428.739746 1020.770508 7496.177246 825.405273 7575.203125 L 825.405273 9379.783203 C 1023.452881 9446.324219 1261.457031 9485.259766 1636.005859 9485.259766 Z"/>
            <path id="path22" fill="#fdf0ee" stroke="none" d="M 2561.088867 7596.017578 L 2561.088867 7525.376953 C 2346.430176 7430.834961 2077.502686 7338.323242 1636.003174 7338.323242 C 1269.365967 7338.323242 1021.790771 7402.183594 825.405273 7477.993652 C 798.57373 7488.350586 772.708252 7498.918945 747.621338 7509.590332 C 772.71875 7498.926758 798.568604 7488.350586 825.405273 7478.003906 L 825.405273 7547.381836 C 1021.298584 7469.072266 1264.07251 7402.907227 1636.005859 7402.907227 C 2083.501709 7402.907227 2344.374023 7498.535156 2561.088867 7596.017578 Z"/>
            <path id="path23" fill="#fdf0ee" stroke="none" d="M 2561.088867 9364.851563 C 2337.959473 9456.077148 2083.280029 9511.09082 1636.005859 9511.09082 C 1262.956543 9511.09082 1023.9375 9472.794922 825.405273 9407.164063 L 825.405273 9474.851563 C 771.602783 9457.875977 720.841064 9438.960938 671.483887 9418.352539 C 720.81543 9438.992188 771.60791 9457.94043 825.405273 9474.995117 C 1025.478271 9538.430664 1267.623779 9575.670898 1636.003174 9575.670898 C 2077.39917 9575.670898 2337.547363 9522.291016 2561.088867 9434.392578 C 2584.947266 9425.011719 2608.390137 9415.227539 2631.588379 9405.081055 C 2608.385254 9415.191406 2584.962402 9424.958008 2561.088867 9434.293945 L 2561.088867 9364.851563 Z"/>
            <path id="path24" fill="#fdf0ee" stroke="none" d="M 259.93457 9223.500977 L 259.93457 9153.076172 C 250.427979 9148.904297 241.308105 9144.881836 232.716309 9141.037109 L 225.817627 9137.93457 L 224.304932 9120.500977 C 206.554688 8898.654297 205.96167 8078.588867 223.356445 7810.867188 C 223.877197 7802.466797 224.415771 7794.984375 224.943604 7788.464844 L 225.753418 7778.77832 L 235.274902 7776.861328 C 243.537109 7775.191406 251.682861 7773.322266 259.93457 7771.5625 L 259.93457 7705.591797 C 229.314697 7712.490234 195.664063 7718.61084 170.01001 7724.256836 C 167.685303 7727.099121 165.358887 7737.69043 163.291748 7754.998047 C 161.74292 7768.431641 160.19165 7785.99707 158.90332 7806.921875 C 141.596191 8073.254883 141.85376 8899.636719 159.934082 9125.667969 C 162.260742 9155.635742 165.10083 9175.009766 168.200928 9181.209961 L 170.01001 9183.276367 C 194.893799 9195.171875 226.21167 9208.84082 259.93457 9223.5625 C 291.919922 9237.527344 326.057617 9252.448242 359.086914 9267.779297 C 326.055176 9252.415039 291.994873 9237.393555 259.93457 9223.500977 Z"/>
            <path id="path25" fill="#fdf0ee" stroke="none" d="M 3015.999023 7706.359375 L 3015.999023 7772.348633 C 3022.320313 7773.601563 3028.575195 7774.8125 3034.666992 7775.963867 L 3048.894531 7778.714844 L 3049.840332 7788.300781 C 3050.53418 7795.301758 3051.19043 7803.121094 3051.811523 7811.736328 C 3072.494629 8077.666992 3067.299805 8908.84668 3048.479492 9120.59082 L 3046.940918 9137.442383 L 3040.04248 9140.518555 C 3032.233887 9143.993164 3024.005859 9147.572266 3015.999023 9151.086914 L 3015.999023 9221.433594 C 3007.216797 9225.310547 2998.40332 9229.317383 2989.584961 9233.213867 C 2998.424316 9229.334961 3007.203613 9225.485352 3015.999023 9221.642578 C 3045.307129 9208.837891 3074.375977 9196.115234 3102.250977 9183.276367 L 3104.060059 9181.724609 C 3107.418457 9176.300781 3110.260742 9156.668945 3112.842773 9125.927734 C 3132.734375 8901.960938 3136.865723 8072.479492 3116.200684 7806.664063 C 3114.651855 7785.481445 3112.842773 7767.914063 3110.776367 7754.485352 C 3108.45166 7736.660156 3105.351563 7726.065918 3102.250977 7724.256836 C 3069.737793 7716.185547 3043.728027 7712.260742 3015.999023 7706.331055 C 3014.916992 7706.099121 3013.832031 7705.864746 3012.73877 7705.62793 C 3013.811035 7705.857422 3014.935059 7706.161133 3015.999023 7706.359375 Z"/>
            <path id="path26" fill="#ffffff" stroke="none" d="M 825.405273 9407.164063 C 693.15625 9363.445313 578.838379 9307.614258 454.943848 9242.828125 C 401.953125 9215.089844 339.741699 9187.933594 284.848633 9163.980469 C 276.143799 9160.173828 267.917725 9156.579102 259.93457 9153.076172 L 259.93457 9223.500977 C 291.994873 9237.393555 326.055176 9252.415039 359.086914 9267.779297 C 359.689941 9268.05957 360.287842 9268.34375 360.890869 9268.624023 C 371.48999 9273.564453 381.93457 9278.503906 392.1604 9283.500977 C 394.984619 9284.879883 397.63916 9286.261719 400.424561 9287.642578 C 408.70459 9291.75 417.146973 9295.855469 425.001709 9299.96582 C 456.901855 9316.693359 488.23584 9332.817383 519.469238 9348.348633 C 522.213623 9349.714844 524.963379 9351.05957 527.703125 9352.415039 C 542.108398 9359.530273 556.497803 9366.549805 570.908691 9373.389648 C 571.942139 9373.878906 572.980469 9374.353516 574.01123 9374.84082 C 588.133301 9381.519531 602.294189 9388.049805 616.513672 9394.456055 C 618.531738 9395.366211 620.552002 9396.291016 622.57251 9397.195313 C 637.80249 9404.003906 653.112549 9410.655273 668.561768 9417.133789 C 669.532959 9417.541016 670.50708 9417.948242 671.483887 9418.352539 C 720.841064 9438.960938 771.602783 9457.875977 825.405273 9474.851563 L 825.405273 9407.164063 Z"/>
            <path id="path27" fill="#ffffff" stroke="none" d="M 283.547363 7766.491211 C 402.759521 7738.768066 509.468018 7689.222656 622.436035 7636.762695 C 686.314453 7607.101074 752.734375 7576.432617 825.405273 7547.381836 L 825.405273 7478.003906 C 798.568604 7488.350586 772.71875 7498.926758 747.621338 7509.590332 C 746.44873 7510.087891 745.30957 7510.584961 744.142578 7511.084961 C 720.606689 7521.119629 697.774658 7531.226563 675.470459 7541.302734 C 671.865479 7542.931641 668.360352 7544.529297 664.788818 7546.155273 C 646.987061 7554.244141 629.556152 7562.282227 612.359619 7570.25 C 493.678711 7625.227539 387.269287 7675.937988 268.974365 7703.519531 C 265.877197 7704.292969 263.034424 7704.810547 259.93457 7705.586914 L 259.93457 7705.591797 L 259.93457 7771.5625 C 267.835449 7769.879883 275.85498 7768.310547 283.547363 7766.491211 Z"/>
            <path id="path28" fill="#ffffff" stroke="none" d="M 466.924316 9219.944336 C 586.947754 9282.709961 697.921143 9336.951172 825.405273 9379.783203 L 825.405273 7575.203125 C 756.890869 7602.918945 693.980957 7632.028809 633.310791 7660.198242 C 519.095459 7713.237305 411.209473 7763.32666 289.438232 7791.642578 C 279.831543 7793.916016 269.861328 7795.990234 259.93457 7798.072266 L 259.93457 9124.8125 C 270.97168 9129.685547 282.130127 9134.597656 293.93042 9139.748047 C 350.46167 9164.419922 413.126465 9191.780273 466.924316 9219.944336 Z"/>
            <path id="path29" fill="#e9e7e1" stroke="none" d="M 2561.088867 7596.017578 C 2591.407715 7609.655273 2620.888184 7623.331055 2649.867188 7636.788086 C 2762.821777 7689.23291 2869.52002 7738.768066 2988.425781 7766.442383 C 2998.021973 7768.705078 3007.11377 7770.588867 3015.999023 7772.348633 L 3015.999023 7706.359375 C 3014.935059 7706.161133 3013.811035 7705.857422 3012.73877 7705.62793 C 3009.659668 7704.965332 3006.601074 7704.285156 3003.34375 7703.519531 C 2865.708984 7671.304688 2744.086914 7608.005859 2600.393555 7542.946289 C 2592.693359 7539.45752 2584.947266 7535.970703 2577.107422 7532.479004 C 2571.716797 7530.074219 2566.550293 7527.678711 2561.088867 7525.276367 L 2561.088867 7525.376953 L 2561.088867 7596.017578 Z"/>
            <path id="path30" fill="#e9e7e1" stroke="none" d="M 3015.999023 9151.086914 C 3007.583008 9154.780273 2999.382813 9158.411133 2990.711426 9162.201172 C 2932.02002 9187.845703 2872.98877 9213.628906 2817.099121 9242.81543 C 2730.199707 9288.255859 2648.037109 9329.299805 2561.088867 9364.851563 L 2561.088867 9434.293945 C 2584.962402 9424.958008 2608.385254 9415.191406 2631.588379 9405.081055 C 2633.010742 9404.462891 2634.443359 9403.841797 2635.863281 9403.21875 C 2657.680176 9393.657227 2679.283691 9383.733398 2700.827148 9373.520508 C 2705.089844 9371.5 2709.367188 9369.410156 2713.624512 9367.367188 C 2731.748535 9358.65918 2749.862305 9349.750977 2768.032227 9340.607422 C 2773.12207 9338.042969 2778.263184 9335.466797 2783.365723 9332.871094 C 2804.448242 9322.145508 2825.597656 9311.242188 2847.056641 9299.96582 C 2849.435059 9298.728516 2851.991211 9297.641602 2854.382813 9296.416992 C 2877.351563 9284.666016 2900.861328 9273.352539 2924.687988 9262.37793 C 2935.645996 9257.332031 2946.595215 9252.407227 2957.629883 9247.464844 C 2968.286133 9242.689453 2978.918945 9237.923828 2989.584961 9233.213867 C 2998.40332 9229.317383 3007.216797 9225.310547 3015.999023 9221.433594 L 3015.999023 9151.086914 Z"/>
            <path id="path31" fill="#e9e7e1" stroke="none" d="M 2805.125977 9219.920898 C 2861.825195 9190.316406 2921.28418 9164.345703 2978.779297 9139.232422 C 2992.10791 9133.40918 3004.222656 9128.102539 3015.999023 9122.905273 L 3015.999023 7798.546875 C 3005.183594 7796.446289 2994.350098 7794.376953 2982.53418 7791.59375 C 2861.054199 7763.32666 2753.196777 7713.237305 2638.99707 7660.223633 C 2613.525879 7648.397461 2587.567871 7636.399414 2561.088867 7624.408203 L 2561.088867 9336.783203 C 2643.715332 9302.506836 2722.262695 9263.253906 2805.125977 9219.920898 Z"/>
            <path id="path32" fill="#373841" stroke="none" d="M 454.943848 9242.828125 C 578.838379 9307.614258 693.15625 9363.445313 825.405273 9407.164063 C 1023.9375 9472.794922 1262.956543 9511.09082 1636.005859 9511.09082 C 2083.280029 9511.09082 2337.959473 9456.077148 2561.088867 9364.851563 C 2648.037109 9329.299805 2730.199707 9288.255859 2817.099121 9242.81543 C 2872.98877 9213.628906 2932.02002 9187.845703 2990.711426 9162.201172 C 2999.382813 9158.411133 3007.583008 9154.780273 3015.999023 9151.086914 C 3024.005859 9147.572266 3032.233887 9143.993164 3040.04248 9140.518555 L 3046.940918 9137.442383 L 3048.479492 9120.59082 C 3067.299805 8908.84668 3072.494629 8077.666992 3051.811523 7811.736328 C 3051.19043 7803.121094 3050.53418 7795.301758 3049.840332 7788.300781 L 3048.894531 7778.714844 L 3034.666992 7775.963867 C 3028.575195 7774.8125 3022.320313 7773.601563 3015.999023 7772.348633 C 3007.11377 7770.588867 2998.021973 7768.705078 2988.425781 7766.442383 C 2869.52002 7738.768066 2762.821777 7689.23291 2649.867188 7636.788086 C 2620.888184 7623.331055 2591.407715 7609.655273 2561.088867 7596.017578 C 2344.374023 7498.535156 2083.501709 7402.907227 1636.005859 7402.907227 C 1264.07251 7402.907227 1021.298584 7469.072266 825.405273 7547.381836 C 752.734375 7576.432617 686.314453 7607.101074 622.436035 7636.762695 C 509.468018 7689.222656 402.759521 7738.768066 283.547363 7766.491211 C 275.85498 7768.310547 267.835449 7769.879883 259.93457 7771.5625 C 251.682861 7773.322266 243.537109 7775.191406 235.274902 7776.861328 L 225.753418 7778.77832 L 224.943604 7788.464844 C 224.415771 7794.984375 223.877197 7802.466797 223.356445 7810.867188 C 205.96167 8078.588867 206.554688 8898.654297 224.304932 9120.500977 L 225.817627 9137.93457 L 232.716309 9141.037109 C 241.308105 9144.881836 250.427979 9148.904297 259.93457 9153.076172 C 267.917725 9156.579102 276.143799 9160.173828 284.848633 9163.980469 C 339.741699 9187.933594 401.953125 9215.089844 454.943848 9242.828125 Z M 250.237305 9120.552734 L 250.05957 9118.457031 C 232.363281 8897.293945 231.783203 8079.557617 249.139648 7812.493164 C 249.4021 7808.154297 249.68042 7804.069336 249.95874 7800.248047 C 253.319336 7799.55957 256.57666 7798.77832 259.93457 7798.072266 C 269.861328 7795.990234 279.831543 7793.916016 289.438232 7791.642578 C 411.209473 7763.32666 519.095459 7713.237305 633.310791 7660.198242 C 693.980957 7632.028809 756.890869 7602.918945 825.405273 7575.203125 C 1020.770508 7496.177246 1262.7146 7428.739746 1636.005859 7428.739746 C 2085.424316 7428.739746 2344.592773 7526.374023 2561.088867 7624.408203 C 2587.567871 7636.399414 2613.525879 7648.397461 2638.99707 7660.223633 C 2753.196777 7713.237305 2861.054199 7763.32666 2982.53418 7791.59375 C 2994.350098 7794.376953 3005.183594 7796.446289 3015.999023 7798.546875 C 3018.916016 7799.113281 3022.147949 7799.875977 3025.016113 7800.421875 C 3025.371582 7804.583984 3025.711914 7808.999023 3026.052246 7813.666016 C 3046.678223 8078.828125 3041.503906 8907.282227 3022.735352 9118.382813 L 3022.598633 9119.998047 C 3020.447266 9120.949219 3018.174316 9121.943359 3015.999023 9122.905273 C 3004.222656 9128.102539 2992.10791 9133.40918 2978.779297 9139.232422 C 2921.28418 9164.345703 2861.825195 9190.316406 2805.125977 9219.920898 C 2722.262695 9263.253906 2643.715332 9302.506836 2561.088867 9336.783203 C 2338.106934 9429.28418 2085.218018 9485.259766 1636.005859 9485.259766 C 1261.457031 9485.259766 1023.452881 9446.324219 825.405273 9379.783203 C 697.921143 9336.951172 586.947754 9282.709961 466.924316 9219.944336 C 413.126465 9191.780273 350.46167 9164.419922 293.93042 9139.748047 C 282.130127 9134.597656 270.97168 9129.685547 259.93457 9124.8125 C 256.7854 9123.422852 253.296387 9121.913086 250.237305 9120.552734 Z"/>
        </g>
    </g>
</svg>
